<?xml version="1.0" standalone="no"?>
<!DOCTYPE svg PUBLIC "-//W3C//DTD SVG 1.1//EN" "http://www.w3.org/Graphics/SVG/1.1/DTD/svg11.dtd" >
<svg>
<metadata>
Created by FontForge 20090914 at Fri Feb 24 10:50:30 2012
 By root
(c) 2010 Natasha Maria Fernandez-Fountain at www.natashaisneat.com &#38; One by Four at www.onebyfourstudio.com
</metadata>
<defs>
<font id="Geomancy-ExtraBold" horiz-adv-x="801" >
  <font-face 
    font-family="Geomancy"
    font-weight="400"
    font-stretch="normal"
    units-per-em="1000"
    panose-1="2 0 0 0 0 0 0 0 0 0"
    ascent="750"
    descent="-250"
    x-height="705"
    cap-height="705"
    bbox="-70 -367 1168 1103"
    underline-thickness="50"
    underline-position="-50"
    unicode-range="U+0020-U+2022"
  />
<missing-glyph horiz-adv-x="500" 
 />
    <glyph glyph-name="h_a" unicode="ha" horiz-adv-x="1172" 
d="M497 114v-114h-200v114h-97v-114h-200v705h200v-416h97v416h200v-416h132c15 86 41 176 86 250c115 188 319 172 387 166v-705h-168v114h-145s-1 -87 1 -114h-178c-1 25 -2 71 0 114h-115zM809 289h125v204c-25 -13 -57 -34 -88 -85c-28 -46 -37 -119 -37 -119z" />
    <glyph glyph-name="j_a" unicode="ja" horiz-adv-x="1124" 
d="M245 -30c-135 0 -245 110 -245 245h200c0 -25 20 -45 45 -45s45 20 45 45v490h200v-416h91c15 86 41 176 86 250c115 188 319 172 387 166v-705h-168v114h-145s-1 -87 1 -114h-178c-1 25 -2 71 0 114h-96c-38 -85 -124 -144 -223 -144zM761 289h125v204
c-25 -13 -57 -34 -88 -85c-28 -46 -37 -119 -37 -119z" />
    <glyph glyph-name="l_i" unicode="li" horiz-adv-x="540" 
d="M470 705v-435h-200v435h200zM340 806c0 55 45 100 100 100s100 -45 100 -100s-45 -100 -100 -100s-100 45 -100 100zM200 199h280v-199h-480v705h200v-506z" />
    <glyph glyph-name="e_e" unicode="ee" horiz-adv-x="914" 
d="M844 499h-187v-48h187v-200h-187v-51h187v-200h-387v251h-257v-51h187v-200h-387v705h387v-206h-187v-48h257v254h387v-206z" />
    <glyph glyph-name="l_a" unicode="la" horiz-adv-x="720" 
d="M200 202h260v-200h-260h-41h-159v706h200v-506zM547 262l-23 57h-125l-25 -57h-102l191 447l187 -447h-103zM435 404h53l-26 62z" />
    <glyph glyph-name=".notdef" horiz-adv-x="500" 
 />
    <glyph glyph-name=".null" horiz-adv-x="0" 
 />
    <glyph glyph-name="CR" horiz-adv-x="500" 
 />
    <glyph glyph-name="space" unicode=" " horiz-adv-x="440" 
 />
    <glyph glyph-name="parenright" unicode=")" horiz-adv-x="413" 
d="M0 699l102 148c141 -97 241 -314 241 -487c0 -189 -100 -406 -241 -503l-102 148c11 8 163 100 163 356c0 238 -152 330 -163 338z" />
    <glyph glyph-name="plus" unicode="+" horiz-adv-x="470" 
d="M130 420v130h140v-130h130v-140h-130v-130h-140v130h-130v140h130z" />
    <glyph glyph-name="comma" unicode="," horiz-adv-x="260" 
d="M190 104l-190 -304v366s42 12 106 -12s84 -50 84 -50z" />
    <glyph glyph-name="hyphen" unicode="-" horiz-adv-x="470" 
d="M400 250h-400v200h400v-200z" />
    <glyph glyph-name="period" unicode="." horiz-adv-x="270" 
d="M0 85c0 55 45 100 100 100s100 -45 100 -100s-45 -100 -100 -100s-100 45 -100 100z" />
    <glyph glyph-name="slash" unicode="/" horiz-adv-x="533" 
d="M463 842l-463 -1142l253 1207c35 3 72 0 108 -11c38 -12 73 -30 102 -54z" />
    <glyph glyph-name="zero" unicode="0" horiz-adv-x="672" 
d="M301 -31c-169 0 -301 167 -301 379c0 214 132 380 301 380c168 0 301 -166 301 -380c0 -212 -133 -379 -301 -379v0zM301 532c-50 0 -108 -75 -108 -184s58 -183 108 -183c49 0 107 74 107 183s-58 184 -107 184v0z" />
    <glyph glyph-name="one" unicode="1" horiz-adv-x="270" 
d="M200 728v-728h-200v658z" />
    <glyph glyph-name="two" unicode="2" horiz-adv-x="624" 
d="M554 0h-554l328 395c38 45 7 113 -50 113c-38 0 -68 -30 -68 -68h-200c13 150 122 268 268 268c177 0 268 -119 268 -258c0 -71 -70 -191 -188 -250h196v-200v0z" />
    <glyph glyph-name="three" unicode="3" horiz-adv-x="487" 
d="M308 479c78 -49 129 -133 129 -230c0 -151 -127 -273 -283 -273c-49 0 -114 12 -154 32v220s42 -41 121 -41c57 0 100 46 100 102c0 69 -63 102 -120 102h-30l66 148h-136v170h403z" />
    <glyph glyph-name="four" unicode="4" horiz-adv-x="791" 
d="M721 278v-185h-119v-93h-215v93h-387l322 613l280 -1v-427h119zM300 278h87v185z" />
    <glyph glyph-name="five" unicode="5" horiz-adv-x="618" 
d="M524 709l-8 -188h-233l-10 -53s259 16 274 -213c6 -109 -59 -270 -264 -270c-206 0 -283 176 -283 176l158 89c49 -96 159 -94 195 -55c26 28 21 107 -80 118c-119 14 -224 -28 -224 -28l65 424h410z" />
    <glyph glyph-name="six" unicode="6" horiz-adv-x="666" 
d="M2 276c18 104 7 75 188 429h229l-99 -187c158 14 276 -93 276 -242c0 -164 -134 -297 -297 -297c-164 0 -313 133 -297 297zM381 276c0 45 -37 82 -82 82s-82 -37 -82 -82s37 -82 82 -82s82 37 82 82z" />
    <glyph glyph-name="seven" unicode="7" horiz-adv-x="691" 
d="M189 -101l-189 101l261 490h-233v215h593l-432 -806v0z" />
    <glyph glyph-name="eight" unicode="8" horiz-adv-x="574" 
d="M385 387c67 -40 116 -106 118 -183c1 -127 -107 -231 -244 -232c-137 -2 -257 98 -258 223c-1 89 53 165 135 204c-42 34 -70 85 -71 141c-1 107 84 196 194 196c109 2 206 -84 206 -191c2 -65 -31 -123 -80 -158zM261 156h-8c29 0 58 24 57 53c0 28 -25 50 -53 49
c-29 -1 -50 -24 -50 -53c2 -28 25 -50 54 -49zM260 493c20 1 35 19 34 40c-1 22 -17 39 -37 38c-19 -1 -35 -19 -34 -41c1 -21 17 -38 37 -37z" />
    <glyph glyph-name="nine" unicode="9" horiz-adv-x="666" 
d="M594 429c-18 -104 -7 -75 -188 -429h-229l99 187c-158 -14 -276 93 -276 242c0 164 134 297 297 297c164 0 313 -133 297 -297zM215 429c0 -45 37 -82 82 -82s82 37 82 82s-37 82 -82 82s-82 -37 -82 -82z" />
    <glyph glyph-name="colon" unicode=":" horiz-adv-x="270" 
d="M0 85c0 55 45 100 100 100s100 -45 100 -100s-45 -100 -100 -100s-100 45 -100 100zM0 352c0 55 45 100 100 100s100 -45 100 -100s-45 -100 -100 -100s-100 45 -100 100z" />
    <glyph glyph-name="semicolon" unicode=";" horiz-adv-x="270" 
d="M0 352c0 55 45 100 100 100s100 -45 100 -100s-45 -100 -100 -100s-100 45 -100 100zM0 -200l190 304s-20 26 -84 50s-106 12 -106 12v-366z" />
    <glyph glyph-name="less" unicode="&#x3c;" horiz-adv-x="455" 
d="M385 295v-229l-385 286l385 279v-227l-137 -54z" />
    <glyph glyph-name="equal" unicode="=" horiz-adv-x="520" 
d="M450 385h-450v200h450v-200zM450 115h-450v200h450v-200z" />
    <glyph glyph-name="greater" unicode="&#x3e;" horiz-adv-x="455" 
d="M0 66v229l137 55l-137 54v227l385 -279z" />
    <glyph glyph-name="question" unicode="?" horiz-adv-x="460" 
d="M193 209h-123l-58 183c130 -24 182 66 182 114s-56 154 -194 98l4 160c200 84 386 -67 386 -251c0 -120 -90 -222 -197 -261v-43zM36 85c0 55 45 100 100 100s100 -45 100 -100s-45 -100 -100 -100s-100 45 -100 100z" />
    <glyph glyph-name="at" unicode="@" horiz-adv-x="744" 
d="M294 130l-24 56h-122l-24 -56h-100l187 438l183 -438h-100zM659 574v-98h-116v-346h-99v346h-116v98h331zM674 705v-100h-674v100h674zM674 100v-100h-674v100h674zM183 270h52l-25 61z" />
    <glyph glyph-name="A" unicode="A" horiz-adv-x="832" 
d="M544 0l-51 111h-224l-52 -111h-217l373 754l389 -754h-218zM332 301h81l-40 93z" />
    <glyph glyph-name="B" unicode="B" horiz-adv-x="574" 
d="M414 390c67 -40 110 -107 110 -182c0 -122 -112 -208 -251 -208c-26 0 -55 -1 -273 0v709h298v-1c103 -4 185 -83 185 -180c0 -55 -27 -105 -69 -138zM199 552v5v-119c48 0 88 19 88 55c0 35 -40 59 -88 59zM199 173c57 -5 113 16 113 55c0 38 -42 57 -94 57
c-7 0 -13 0 -19 -1v-111z" />
    <glyph glyph-name="C" unicode="C" horiz-adv-x="515" 
d="M435 -2c-243 -18 -435 123 -435 371c0 205 146 375 435 346v-200c-140 12 -214 -72 -214 -145c0 -76 63 -162 214 -162v-210v0z" />
    <glyph glyph-name="D" unicode="D" horiz-adv-x="699" 
d="M297 704c194 0 352 -158 352 -353c0 -194 -158 -351 -352 -351h-297v705h200zM200 496v-290c155 -19 221 54 221 145c0 75 -63 164 -221 145z" />
    <glyph glyph-name="E" unicode="E" horiz-adv-x="557" 
d="M487 499h-287v-48h287v-200h-287v-51h287v-200l-287 -1h-200v706h487v-206z" />
    <glyph glyph-name="F" unicode="F" horiz-adv-x="554" 
d="M484 499h-284v-48h284v-200h-284v-252h-200v706h484v-206z" />
    <glyph glyph-name="G" unicode="G" horiz-adv-x="749" 
d="M379 170v216h290v-200h-90v-167c-93 -47 -158 -49 -207 -49c-200 0 -372 175 -372 382c0 192 151 376 359 376c212 0 335 -165 340 -172l-161 -119h1c-3 3 -71 91 -180 91c-110 0 -159 -103 -159 -176c0 -95 76 -180 179 -182z" />
    <glyph glyph-name="H" unicode="H" horiz-adv-x="646" 
d="M576 705v-706h-200v253h-176v-253h-200v706h200v-253h176v253h200z" />
    <glyph glyph-name="I" unicode="I" horiz-adv-x="270" 
d="M200 705v-705h-200v705h200z" />
    <glyph glyph-name="J" unicode="J" horiz-adv-x="478" 
d="M204 -30c-113 0 -204 91 -204 204h200c1 -5 8 -5 8 0v531h200v-531c0 -113 -92 -204 -204 -204v0z" />
    <glyph glyph-name="K" unicode="K" horiz-adv-x="722" 
d="M200 192v-192h-200v705h200v-258l271 271l127 -127l-202 -203l271 -388h-243l-172 244z" />
    <glyph glyph-name="L" unicode="L" horiz-adv-x="416" 
d="M200 200h146v-200h-346v705h200v-505z" />
    <glyph glyph-name="M" unicode="M" horiz-adv-x="865" 
d="M398 269l267 464l130 -733h-188l-40 221l-173 -291l-173 291l-50 -221h-171l120 733z" />
    <glyph glyph-name="N" unicode="N" horiz-adv-x="706" 
d="M636 705v-818l-436 407v-294h-200v788l434 -402l2 319h200z" />
    <glyph glyph-name="O" unicode="O" 
d="M375 -30c-207 0 -375 169 -375 376s168 382 375 382c208 0 376 -175 376 -382s-168 -376 -376 -376zM375 528c-96 0 -175 -85 -175 -182s79 -176 175 -176c97 0 176 79 176 176s-79 182 -176 182z" />
    <glyph glyph-name="P" unicode="P" horiz-adv-x="617" 
d="M200 106v-106h-200v705h267c167 0 300 -141 300 -299c0 -81 -32 -158 -88 -212c-80 -78 -175 -88 -279 -88zM200 306h67c55 0 100 45 100 100s-45 100 -100 100h-67v-200z" />
    <glyph glyph-name="R" unicode="R" horiz-adv-x="630" 
d="M555 145l-75 -168c-109 5 -219 77 -280 165v-142h-200v705h232c177 0 328 -97 328 -274c0 -143 -104 -218 -145 -228c0 0 16 -18 54 -36c39 -18 86 -22 86 -22zM200 492v-163c71 -19 134 19 134 84c0 59 -73 94 -134 79z" />
    <glyph glyph-name="S" unicode="S" horiz-adv-x="444" 
d="M370 706v-213c19 0 -40 14 -70 -26c-19 -25 -6 -173 -30 -293c-31 -156 -176 -181 -270 -176v209s63 -3 93 37c19 26 14 93 16 177c5 181 79 285 261 285z" />
    <glyph glyph-name="T" unicode="T" horiz-adv-x="532" 
d="M462 705v-205h-128v-500h-204v500h-130v205h462z" />
    <glyph glyph-name="U" unicode="U" horiz-adv-x="560" 
d="M245 -30c-135 0 -245 110 -245 245v490h200v-490c0 -25 20 -45 45 -45s45 20 45 45v490h200v-490c0 -135 -110 -245 -245 -245z" />
    <glyph glyph-name="V" unicode="V" horiz-adv-x="671" 
d="M374 705h227l-301 -748l-300 748h227l73 -244z" />
    <glyph glyph-name="W" unicode="W" horiz-adv-x="1026" 
d="M720 705h236l-268 -762l-210 482l-210 -482l-268 762h237l71 -218l170 395l170 -395z" />
    <glyph glyph-name="X" unicode="X" horiz-adv-x="665" 
d="M595 705l-170 -353l170 -352h-227l-72 174l-71 -174h-225l168 352l-168 353h224l72 -176l73 176h226z" />
    <glyph glyph-name="Y" unicode="Y" horiz-adv-x="681" 
d="M392 707l219 -2l-202 -406v-299h-194v299l-215 406l220 2l93 -194z" />
    <glyph glyph-name="Z" unicode="Z" horiz-adv-x="694" 
d="M624 0h-619l263 509h-268v196h598l-263 -505h289v-200v0z" />
    <glyph glyph-name="bracketleft" unicode="[" horiz-adv-x="341" 
d="M0 -145v992h271v-180h-91v-632h91v-180h-271z" />
    <glyph glyph-name="backslash" unicode="\" horiz-adv-x="533" 
d="M463 -300l-463 1142c29 24 64 42 102 54c36 11 73 14 108 11z" />
    <glyph glyph-name="bracketright" unicode="]" horiz-adv-x="341" 
d="M271 -145h-271v180h91v632h-91v180h271v-992v0z" />
    <glyph glyph-name="grave" unicode="`" horiz-adv-x="312" 
d="M153 1097l159 -322l-312 193s11 42 66 85c54 41 87 44 87 44z" />
    <glyph glyph-name="a" unicode="a" horiz-adv-x="605" 
d="M535 705v-705h-168v114h-145s-1 -87 1 -114h-178c-1 25 -2 71 0 114h-45v175h62c15 86 41 176 86 250c115 188 319 172 387 166zM242 289h-10h135v204c-25 -13 -57 -34 -88 -85c-28 -46 -37 -119 -37 -119z" />
    <glyph glyph-name="b" unicode="b" horiz-adv-x="519" 
d="M449 485c0 -49 -16 -94 -42 -131c26 -37 42 -82 42 -131c0 -123 -55 -224 -225 -224l-224 1v705h224c124 0 225 -96 225 -220zM262 484c0 27 -22 48 -49 48h-30v-94h30c27 0 47 17 49 46zM262 214c0 27 -22 48 -49 48h-30v-94h30c25 0 49 17 49 46z" />
    <glyph glyph-name="c" unicode="c" horiz-adv-x="774" 
d="M371 -30c-106 0 -204 46 -275 128c-61 71 -96 164 -96 255c0 90 33 182 91 251c67 80 162 124 267 124c212 0 336 -165 341 -172l-161 -118l1 -1c-3 4 -71 91 -181 91c-109 0 -158 -102 -158 -175c0 -77 60 -183 171 -183c109 0 161 78 163 81c0 -1 -1 -1 -1 -1l171 -104
c-40 -66 -155 -176 -333 -176v0z" />
    <glyph glyph-name="d" unicode="d" horiz-adv-x="614" 
d="M564 350c0 -196 -156 -348 -364 -350v0h-200v705l196 2c210 0 368 -160 368 -357zM200 189c94 2 161 56 161 161c0 99 -67 154 -161 156v-317z" />
    <glyph glyph-name="e" unicode="e" horiz-adv-x="467" 
d="M387 499h-187v-48h187v-200h-187v-51h187v-200h-387v705h387v-206z" />
    <glyph glyph-name="f" unicode="f" horiz-adv-x="457" 
d="M387 499h-187v-48h187v-200h-187v-251h-200v706h387v-207z" />
    <glyph glyph-name="g" unicode="g" horiz-adv-x="781" 
d="M711 366v-160h-106l99 -61c-40 -65 -155 -175 -333 -175c-107 0 -204 45 -275 127c-61 72 -96 165 -96 256c0 90 33 181 91 250c67 81 162 125 267 125c212 0 336 -165 341 -172l-161 -118v-1c-3 4 -71 91 -180 91s-158 -103 -158 -175c0 -77 59 -183 171 -183
c51 0 89 17 116 36h-128v160h352zM534 251l-1 -1c1 0 1 1 1 1z" />
    <glyph glyph-name="h" unicode="h" horiz-adv-x="567" 
d="M497 705v-705h-200v253h-97v-253h-200v705h200v-252h97v252h200z" />
    <glyph glyph-name="i" unicode="i" horiz-adv-x="280" 
d="M200 705v-705h-200v705h200zM70 806c0 55 45 100 100 100s100 -45 100 -100s-45 -100 -100 -100s-100 45 -100 100z" />
    <glyph glyph-name="j" unicode="j" horiz-adv-x="560" 
d="M245 -30c-135 0 -245 110 -245 245h200c0 -25 20 -45 45 -45s45 20 45 45v490h200v-490c0 -135 -110 -245 -245 -245v0z" />
    <glyph glyph-name="k" unicode="k" horiz-adv-x="584" 
d="M514 233v-248h-1l-313 232v-217h-200v705h200v-210l314 227v-247l-165 -119z" />
    <glyph glyph-name="l" unicode="l" horiz-adv-x="550" 
d="M200 199h280v-199h-480v705h200v-506z" />
    <glyph glyph-name="m" unicode="m" horiz-adv-x="816" 
d="M377 319l369 414v-733h-200v231l-173 -181l-173 181v-231h-200v733z" />
    <glyph glyph-name="n" unicode="n" horiz-adv-x="636" 
d="M566 705v-730l-366 316v-291h-200v725l366 -305v285h200z" />
    <glyph glyph-name="o" unicode="o" 
d="M375 -30c-207 0 -375 169 -375 376s168 382 375 382c208 0 376 -175 376 -382s-168 -376 -376 -376zM375 528c-96 0 -175 -85 -175 -182s79 -176 175 -176c97 0 176 79 176 176s-79 182 -176 182z" />
    <glyph glyph-name="p" unicode="p" horiz-adv-x="529" 
d="M200 200v-200h-200v705h200c137 -4 259 -117 259 -254c0 -139 -122 -250 -259 -251zM271 454c0 44 -44 62 -71 63v-140c27 1 71 23 71 77z" />
    <glyph glyph-name="r" unicode="r" horiz-adv-x="513" 
d="M463 0h-195l-78 184l-16 -1v-183h-174v705h200c137 -4 248 -116 248 -253c0 -85 -42 -160 -106 -205zM256 453c0 43 -45 56 -72 57v-129c27 1 72 19 72 72z" />
    <glyph glyph-name="s" unicode="s" horiz-adv-x="473" 
d="M201 -23c-103 0 -160 55 -199 97l113 124c18 -19 64 -55 82 -34c31 31 7 56 -48 104c-66 57 -147 133 -148 230c-3 140 114 244 240 215c90 -21 141 -75 141 -75l-112 -126c-18 19 -52 39 -73 21c-33 -28 4 -82 59 -129c66 -57 147 -116 147 -237
c0 -108 -97 -190 -202 -190z" />
    <glyph glyph-name="t" unicode="t" horiz-adv-x="622" 
d="M552 705v-205h-178v-500h-204v500h-170v205h552z" />
    <glyph glyph-name="u" unicode="u" horiz-adv-x="560" 
d="M245 -30c-135 0 -245 110 -245 245v490h200v-490c0 -25 20 -45 45 -45s45 20 45 45v490h200v-490c0 -135 -110 -245 -245 -245v0z" />
    <glyph glyph-name="v" unicode="v" horiz-adv-x="800" 
d="M0 705h227l138 -297l138 297h227l-365 -748z" />
    <glyph glyph-name="w" unicode="w" horiz-adv-x="1092" 
d="M0 705h217l185 -367l109 251l113 -251l181 367h217l-367 -748l-144 260l-144 -260z" />
    <glyph glyph-name="x" unicode="x" horiz-adv-x="665" 
d="M595 705l-170 -353l170 -352h-227l-72 174l-71 -174h-225l168 352l-168 353h224l72 -176l73 176h226z" />
    <glyph glyph-name="y" unicode="y" horiz-adv-x="730" 
d="M330 502l110 203h220l-346 -705h-225l139 278l-228 427h220z" />
    <glyph glyph-name="z" unicode="z" horiz-adv-x="623" 
d="M0 0l222 499h-198v206h513l-239 -505h163l112 -200h-573z" />
    <glyph glyph-name="quoteleft" unicode="&#x2018;" horiz-adv-x="264" 
d="M193 1102l1 -358s-31 -12 -98 2c-67 13 -96 46 -96 46z" />
    <glyph glyph-name="quoteright" unicode="&#x2019;" horiz-adv-x="260" 
d="M190 709l-190 304s20 26 84 50s106 12 106 12v-366z" />
    <glyph glyph-name="quotedblleft" unicode="&#x201c;" horiz-adv-x="528" 
d="M193 1102l1 -358s-31 -12 -98 2c-67 13 -96 46 -96 46zM458 1103v-359s-31 -11 -98 2c-67 14 -96 46 -96 46z" />
    <glyph glyph-name="quotedblright" unicode="&#x201d;" horiz-adv-x="450" 
d="M450 709l-190 304s20 26 84 50s106 12 106 12v-366zM190 709l-190 304s20 26 84 50s106 12 106 12v-366z" />
    <glyph glyph-name="bullet" unicode="&#x2022;" horiz-adv-x="270" 
d="M0 352c0 55 45 100 100 100s100 -45 100 -100s-45 -100 -100 -100s-100 45 -100 100z" />
    <glyph glyph-name="Ydieresis" unicode="&#x178;" horiz-adv-x="681" 
d="M392 707l219 -2l-202 -406v-299h-194v299l-215 406l220 2l93 -194zM165 842c0 35 28 63 63 63s63 -28 63 -63s-28 -63 -63 -63s-63 28 -63 63zM335 842c0 35 29 63 64 63c34 0 63 -28 63 -63s-29 -63 -63 -63c-35 0 -64 28 -64 63z" />
    <glyph glyph-name="exclamdown" unicode="&#xa1;" horiz-adv-x="290" 
d="M0 8l113 659l107 -662c-33 -13 -69 -20 -107 -20c-40 0 -78 8 -113 23zM216 797c0 -55 -45 -100 -100 -100s-100 45 -100 100s45 100 100 100s100 -45 100 -100z" />
    <glyph glyph-name="dieresis" unicode="&#xa8;" horiz-adv-x="367" 
d="M0 839c0 35 28 63 63 63s63 -28 63 -63s-28 -63 -63 -63s-63 28 -63 63zM170 839c0 35 29 63 64 63c34 0 63 -28 63 -63s-29 -63 -63 -63c-35 0 -64 28 -64 63z" />
    <glyph glyph-name="acute" unicode="&#xb4;" horiz-adv-x="312" 
d="M0 775l159 322s33 -3 87 -44c55 -43 66 -85 66 -85z" />
    <glyph glyph-name="Aacute" unicode="&#xc1;" horiz-adv-x="832" 
d="M255 775l159 322s33 -3 87 -44c55 -43 66 -85 66 -85zM544 0l-51 111h-224l-52 -111h-217l373 754l389 -754h-218zM332 301h81l-40 93z" />
    <glyph glyph-name="Adieresis" unicode="&#xc4;" horiz-adv-x="832" 
d="M544 0l-51 111h-224l-52 -111h-217l373 754l389 -754h-218zM332 301h81l-40 93zM225 819c0 35 28 63 63 63s63 -28 63 -63s-28 -63 -63 -63s-63 28 -63 63zM395 819c0 35 29 63 64 63c34 0 63 -28 63 -63s-29 -63 -63 -63c-35 0 -64 28 -64 63z" />
    <glyph glyph-name="Eacute" unicode="&#xc9;" horiz-adv-x="557" 
d="M487 499h-287v-48h287v-200h-287v-51h287v-200l-287 -1h-200v706h487v-206zM122 775l159 322s33 -3 87 -44c55 -43 66 -85 66 -85z" />
    <glyph glyph-name="Edieresis" unicode="&#xcb;" horiz-adv-x="557" 
d="M487 499h-287v-48h287v-200h-287v-51h287v-200l-287 -1h-200v706h487v-206zM93 819c0 35 28 63 63 63s63 -28 63 -63s-28 -63 -63 -63s-63 28 -63 63zM263 819c0 35 29 63 64 63c34 0 63 -28 63 -63s-29 -63 -63 -63c-35 0 -64 28 -64 63z" />
    <glyph glyph-name="Iacute" unicode="&#xcd;" horiz-adv-x="282" 
d="M200 0v705h-200v-705h200zM0 775l159 322s33 -3 87 -44c55 -43 66 -85 66 -85z" />
    <glyph glyph-name="Idieresis" unicode="&#xcf;" horiz-adv-x="332" 
d="M243 0v705h-200v-705h200zM0 819c0 35 28 63 63 63s63 -28 63 -63s-28 -63 -63 -63s-63 28 -63 63zM170 819c0 35 29 63 64 63c34 0 63 -28 63 -63s-29 -63 -63 -63c-35 0 -64 28 -64 63z" />
    <glyph glyph-name="Oacute" unicode="&#xd3;" 
d="M375 -30c208 0 376 169 376 376s-168 382 -376 382c-207 0 -375 -175 -375 -382s168 -376 375 -376zM375 528c97 0 176 -85 176 -182s-79 -176 -176 -176c-96 0 -175 79 -175 176s79 182 175 182zM249 775l159 322s33 -3 87 -44c55 -43 66 -85 66 -85z" />
    <glyph glyph-name="Odieresis" unicode="&#xd6;" 
d="M375 -30c208 0 376 169 376 376s-168 382 -376 382c-207 0 -375 -175 -375 -382s168 -376 375 -376zM375 528c97 0 176 -85 176 -182s-79 -176 -176 -176c-96 0 -175 79 -175 176s79 182 175 182zM227 819c0 35 28 63 63 63s63 -28 63 -63s-28 -63 -63 -63s-63 28 -63 63
zM397 819c0 35 29 63 64 63c34 0 63 -28 63 -63s-29 -63 -63 -63c-35 0 -64 28 -64 63z" />
    <glyph glyph-name="Uacute" unicode="&#xda;" horiz-adv-x="560" 
d="M245 -30c135 0 245 110 245 245v490h-200v-490c0 -25 -20 -45 -45 -45s-45 20 -45 45v490h-200v-490c0 -135 110 -245 245 -245zM124 775l159 322s33 -3 87 -44c55 -43 66 -85 66 -85z" />
    <glyph glyph-name="Yacute" unicode="&#xdd;" horiz-adv-x="681" 
d="M392 707l219 -2l-202 -406v-299h-194v299l-215 406l220 2l93 -194zM179 775l159 322s33 -3 87 -44c55 -43 66 -85 66 -85z" />
    <glyph glyph-name="agrave" unicode="&#xe0;" horiz-adv-x="605" 
d="M535 705v-705h-168v114h-145s-1 -87 1 -114h-178c-1 25 -2 71 0 114h-45v175h62c15 86 41 176 86 250c115 188 319 172 387 166zM242 289h-10h135v204c-25 -13 -57 -34 -88 -85c-28 -46 -37 -119 -37 -119zM334 1047l159 -322l-312 193s11 42 66 85c54 41 87 44 87 44z
" />
    <glyph glyph-name="aacute" unicode="&#xe1;" horiz-adv-x="607" 
d="M535 705v-705h-168v114h-145s-1 -87 1 -114h-178c-1 25 -2 71 0 114h-45v175h62c15 86 41 176 86 250c115 188 319 172 387 166zM242 289h-10h135v204c-25 -13 -57 -34 -88 -85c-28 -46 -37 -119 -37 -119zM225 775l159 322s33 -3 87 -44c55 -43 66 -85 66 -85z" />
    <glyph glyph-name="adieresis" unicode="&#xe4;" horiz-adv-x="605" 
d="M535 705v-705h-168v114h-145s-1 -87 1 -114h-178c-1 25 -2 71 0 114h-45v175h62c15 86 41 176 86 250c115 188 319 172 387 166zM242 289h-10h135v204c-25 -13 -57 -34 -88 -85c-28 -46 -37 -119 -37 -119zM238 819c0 35 28 63 63 63s63 -28 63 -63s-28 -63 -63 -63
s-63 28 -63 63zM408 819c0 35 29 63 64 63c34 0 63 -28 63 -63s-29 -63 -63 -63c-35 0 -64 28 -64 63z" />
    <glyph glyph-name="egrave" unicode="&#xe8;" horiz-adv-x="457" 
d="M387 499h-187v-48h187v-200h-187v-51h187v-200h-387v705h387v-206zM199 1047l159 -322l-312 193s11 42 66 85c54 41 87 44 87 44z" />
    <glyph glyph-name="eacute" unicode="&#xe9;" horiz-adv-x="457" 
d="M387 499h-187v-48h187v-200h-187v-51h187v-200h-387v705h387v-206zM72 775l159 322s33 -3 87 -44c55 -43 66 -85 66 -85z" />
    <glyph glyph-name="edieresis" unicode="&#xeb;" horiz-adv-x="457" 
d="M387 499h-187v-48h187v-200h-187v-51h187v-200h-387v705h387v-206zM47 819c0 35 28 63 63 63s63 -28 63 -63s-28 -63 -63 -63s-63 28 -63 63zM217 819c0 35 29 63 64 63c34 0 63 -28 63 -63s-29 -63 -63 -63c-35 0 -64 28 -64 63z" />
    <glyph glyph-name="igrave" unicode="&#xec;" horiz-adv-x="382" 
d="M307 705v-705h-200v705h200zM153 1047l159 -322l-312 193s11 42 66 85c54 41 87 44 87 44z" />
    <glyph glyph-name="iacute" unicode="&#xed;" horiz-adv-x="282" 
d="M200 705v-705h-200v705h200zM0 775l159 322s33 -3 87 -44c55 -43 66 -85 66 -85z" />
    <glyph glyph-name="idieresis" unicode="&#xef;" horiz-adv-x="322" 
d="M246 705v-705h-200v705h200zM0 819c0 35 28 63 63 63s63 -28 63 -63s-28 -63 -63 -63s-63 28 -63 63zM170 819c0 35 29 63 64 63c34 0 63 -28 63 -63s-29 -63 -63 -63c-35 0 -64 28 -64 63z" />
    <glyph glyph-name="ograve" unicode="&#xf2;" 
d="M375 -30c-207 0 -375 169 -375 376s168 382 375 382c208 0 376 -175 376 -382s-168 -376 -376 -376zM375 528c-96 0 -175 -85 -175 -182s79 -176 175 -176c97 0 176 79 176 176s-79 182 -176 182zM362 1047l159 -322l-312 193s11 42 66 85c54 41 87 44 87 44z" />
    <glyph glyph-name="oacute" unicode="&#xf3;" 
d="M375 -30c208 0 376 169 376 376s-168 382 -376 382c-207 0 -375 -175 -375 -382s168 -376 375 -376zM375 528c97 0 176 -85 176 -182s-79 -176 -176 -176c-96 0 -175 79 -175 176s79 182 175 182zM249 775l159 322s33 -3 87 -44c55 -43 66 -85 66 -85z" />
    <glyph glyph-name="odieresis" unicode="&#xf6;" 
d="M375 -30c208 0 376 169 376 376s-168 382 -376 382c-207 0 -375 -175 -375 -382s168 -376 375 -376zM375 528c97 0 176 -85 176 -182s-79 -176 -176 -176c-96 0 -175 79 -175 176s79 182 175 182zM227 819c0 35 28 63 63 63s63 -28 63 -63s-28 -63 -63 -63s-63 28 -63 63
zM397 819c0 35 29 63 64 63c34 0 63 -28 63 -63s-29 -63 -63 -63c-35 0 -64 28 -64 63z" />
    <glyph glyph-name="ugrave" unicode="&#xf9;" horiz-adv-x="560" 
d="M245 -30c-135 0 -245 110 -245 245v490h200v-490c0 -25 20 -45 45 -45s45 20 45 45v490h200v-490c0 -135 -110 -245 -245 -245zM238 1087l159 -322l-312 193s11 42 66 85c54 41 87 44 87 44z" />
    <glyph glyph-name="uacute" unicode="&#xfa;" horiz-adv-x="560" 
d="M245 -30v0c135 0 245 110 245 245v490h-200v-490c0 -25 -20 -45 -45 -45s-45 20 -45 45v490h-200v-490c0 -135 110 -245 245 -245zM124 775l159 322s33 -3 87 -44c55 -43 66 -85 66 -85z" />
    <glyph glyph-name="udieresis" unicode="&#xfc;" horiz-adv-x="560" 
d="M245 -30c135 0 245 110 245 245v490h-200v-490c0 -25 -20 -45 -45 -45s-45 20 -45 45v490h-200v-490c0 -135 110 -245 245 -245zM98 819c0 35 28 63 63 63s63 -28 63 -63s-28 -63 -63 -63s-63 28 -63 63zM268 819c0 35 29 63 64 63c34 0 63 -28 63 -63s-29 -63 -63 -63
c-35 0 -64 28 -64 63z" />
    <glyph glyph-name="yacute" unicode="&#xfd;" horiz-adv-x="730" 
d="M330 502l110 203h220l-346 -705h-225l139 278l-228 427h220zM174 775l159 322s33 -3 87 -44c55 -43 66 -85 66 -85z" />
    <glyph glyph-name="ydieresis" unicode="&#xff;" horiz-adv-x="730" 
d="M330 502l110 203h220l-346 -705h-225l139 278l-228 427h220zM187 819c0 35 28 63 63 63s63 -28 63 -63s-28 -63 -63 -63s-63 28 -63 63zM357 819c0 35 29 63 64 63c34 0 63 -28 63 -63s-29 -63 -63 -63c-35 0 -64 28 -64 63z" />
    <glyph glyph-name="g.alt" horiz-adv-x="789" 
d="M715 385l4 -215c-55 -89 -170 -200 -348 -200c-200 0 -371 177 -371 383c0 192 151 375 358 375c213 0 336 -165 341 -172l-161 -118l1 -1c-3 4 -61 91 -171 91c-109 0 -168 -102 -168 -175c0 -77 60 -183 171 -183c69 0 115 32 140 55h-124v160h328z" />
    <glyph glyph-name="E.alt" horiz-adv-x="506" 
d="M-70 251v200h69v254h437v-206h-237v-48h237v-200h-237v-51h237v-200l-237 -1h-200v252h-69z" />
    <glyph glyph-name="h.alt" horiz-adv-x="567" 
d="M497 705v-705h-200v114h-97v-114h-200v705h200v-416h97v416h200z" />
    <glyph glyph-name="a.swash" horiz-adv-x="832" 
d="M462 680c38 63 120 84 183 47c71 -43 77 -173 -18 -197c-60 -14 -126 35 -108 103c8 34 38 59 82 59c-36 10 -76 -4 -96 -38c-15 -26 -17 -87 -5 -145l262 -509h-218l-51 111h-224l-52 -111h-217l375 754l69 -135c2 21 8 43 18 61zM326 301h92l-45 103zM593 642
c-13 0 -26 -11 -26 -25s12 -25 26 -25s25 11 25 25s-11 25 -25 25z" />
    <glyph glyph-name="A.swash" horiz-adv-x="832" 
d="M291 680c10 -17 15 -39 18 -59l66 133l387 -754h-218l-51 111h-224l-52 -111h-217l251 506c14 59 12 121 -3 148c-20 34 -60 48 -96 38c39 0 69 -19 82 -59c18 -62 -42 -119 -108 -103c-88 22 -96 150 -18 197c63 37 145 16 183 -47zM326 301h92l-45 103zM186 617
c0 13 -12 25 -26 25s-25 -11 -25 -25s11 -25 25 -25s26 11 26 25z" />
    <glyph glyph-name="k.alt" horiz-adv-x="603" 
d="M553 145l-119 -160l-234 173v-158h-200v307l-70 51l70 50v298h200v-153l235 169l117 -162l-282 -204z" />
    <glyph glyph-name="m.alt" horiz-adv-x="736" 
d="M333 543l333 191v-734h-200v375l-133 -101l-133 101v-375h-200v734z" />
    <glyph glyph-name="of" horiz-adv-x="1037" 
d="M564 -234h-162c10 160 55 350 127 523h-57v181h147c58 96 125 179 201 235l122 -104c-49 -34 -93 -79 -131 -131h156v-181h-260c-88 -193 -133 -411 -143 -523zM216 72c-119 0 -216 97 -216 216s97 216 216 216s216 -97 216 -216s-97 -216 -216 -216zM216 344
c-31 0 -56 -25 -56 -56s25 -56 56 -56s56 25 56 56s-25 56 -56 56z" />
    <glyph glyph-name="r.alt" horiz-adv-x="596" 
d="M526 0h-220c2 0 -45 54 -106 142v-142h-200v705h232c177 0 288 -97 288 -274c0 -143 -78 -245 -140 -251c34 -37 146 -180 146 -180zM200 492v-163c74 1 104 19 104 84c0 59 -30 79 -104 79z" />
    <glyph glyph-name="e.alt" horiz-adv-x="370" 
d="M300 499h-100v-48h100v-200h-100v-51h100v-200h-300v705h300v-206z" />
    <glyph glyph-name="parenleft" unicode="(" horiz-adv-x="413" 
d="M241 847l102 -148c-11 -8 -163 -100 -163 -338c0 -256 152 -348 163 -356l-102 -148c-141 97 -241 314 -241 503c0 173 100 390 241 487z" />
    <glyph glyph-name="questiondown" unicode="&#xbf;" horiz-adv-x="460" 
d="M320 555h-123v-43c-107 -39 -197 -141 -197 -261c0 -184 186 -335 386 -251l4 160c-138 -56 -194 50 -194 98s52 138 182 114zM354 679c0 -55 -45 -100 -100 -100s-100 45 -100 100s45 100 100 100s100 -45 100 -100z" />
    <glyph glyph-name="tilde" unicode="&#x2dc;" horiz-adv-x="439" 
d="M259 380c-51 0 -83 29 -106 50c-19 17 -27 24 -40 24c-8 0 -32 0 -33 -25v1h-80c0 42 30 104 113 104c45 0 72 -25 94 -45c21 -19 33 -29 52 -29c21 0 30 17 30 34h80c0 -45 -29 -114 -110 -114v0z" />
    <glyph glyph-name="Atilde" unicode="&#xc3;" horiz-adv-x="832" 
d="M544 0l-51 111h-224l-52 -111h-217l373 754l389 -754h-218zM332 301h81l-40 93zM495 753c-51 0 -83 29 -106 50c-19 17 -27 24 -40 24c-8 0 -32 0 -33 -25v1h-80c0 42 30 104 113 104c45 0 72 -25 94 -45c21 -19 33 -29 52 -29c21 0 30 17 30 34h80
c0 -45 -29 -114 -110 -114v0z" />
    <glyph glyph-name="Ntilde" unicode="&#xd1;" horiz-adv-x="706" 
d="M636 705v-818l-436 407v-294h-200v788l434 -402l2 319h200zM397 753c-51 0 -83 29 -106 50c-19 17 -27 24 -40 24c-8 0 -32 0 -33 -25v1h-80c0 42 30 104 113 104c45 0 72 -25 94 -45c21 -19 33 -29 52 -29c21 0 30 17 30 34h80c0 -45 -29 -114 -110 -114v0z" />
    <glyph glyph-name="atilde" unicode="&#xe3;" horiz-adv-x="607" 
d="M535 705v-705h-168v114h-145s-1 -87 1 -114h-178c-1 25 -2 71 0 114h-45v175h62c15 86 41 176 86 250c115 188 319 172 387 166zM242 289h-10h135v204c-25 -13 -57 -34 -88 -85c-28 -46 -37 -119 -37 -119zM427 750c-51 0 -83 29 -106 50c-19 17 -27 24 -40 24
c-8 0 -32 0 -33 -25v1h-80c0 42 30 104 113 104c45 0 72 -25 94 -45c21 -19 33 -29 52 -29c21 0 30 17 30 34h80c0 -45 -29 -114 -110 -114v0z" />
    <glyph glyph-name="ntilde" unicode="&#xf1;" horiz-adv-x="636" 
d="M566 705v-730l-366 316v-291h-200v725l366 -305v285h200zM362 750c-51 0 -83 29 -106 50c-19 17 -27 24 -40 24c-8 0 -32 0 -33 -25v1h-80c0 42 30 104 113 104c45 0 72 -25 94 -45c21 -19 33 -29 52 -29c21 0 30 17 30 34h80c0 -45 -29 -114 -110 -114v0z" />
    <glyph glyph-name="Otilde" unicode="&#xd5;" 
d="M375 -30c-207 0 -375 169 -375 376s168 382 375 382c208 0 376 -175 376 -382s-168 -376 -376 -376zM375 528c-96 0 -175 -85 -175 -182s79 -176 175 -176c97 0 176 79 176 176s-79 182 -176 182zM450 753c-51 0 -83 29 -106 50c-19 17 -27 24 -40 24c-8 0 -32 0 -33 -25
v1h-80c0 42 30 104 113 104c45 0 72 -25 94 -45c21 -19 33 -29 52 -29c21 0 30 17 30 34h80c0 -45 -29 -114 -110 -114v0z" />
    <glyph glyph-name="otilde" unicode="&#xf5;" 
d="M375 -30c-207 0 -375 169 -375 376s168 382 375 382c208 0 376 -175 376 -382s-168 -376 -376 -376zM375 528c-96 0 -175 -85 -175 -182s79 -176 175 -176c97 0 176 79 176 176s-79 182 -176 182zM450 753c-51 0 -83 29 -106 50c-19 17 -27 24 -40 24c-8 0 -32 0 -33 -25
v1h-80c0 42 30 104 113 104c45 0 72 -25 94 -45c21 -19 33 -29 52 -29c21 0 30 17 30 34h80c0 -45 -29 -114 -110 -114v0z" />
    <glyph glyph-name="Udieresis" unicode="&#xdc;" horiz-adv-x="560" 
d="M245 -30c135 0 245 110 245 245v490h-200v-490c0 -25 -20 -45 -45 -45s-45 20 -45 45v490h-200v-490c0 -135 110 -245 245 -245zM98 819c0 35 28 63 63 63s63 -28 63 -63s-28 -63 -63 -63s-63 28 -63 63zM268 819c0 35 29 63 64 63c34 0 63 -28 63 -63s-29 -63 -63 -63
c-35 0 -64 28 -64 63z" />
    <glyph glyph-name="Agrave" unicode="&#xc0;" horiz-adv-x="832" 
d="M544 0l-51 111h-224l-52 -111h-217l373 754l389 -754h-218zM332 301h81l-40 93zM408 1047l159 -322l-312 193s11 42 66 85c54 41 87 44 87 44z" />
    <glyph glyph-name="Egrave" unicode="&#xc8;" horiz-adv-x="557" 
d="M487 499h-287v-48h287v-200h-287v-51h287v-200l-287 -1h-200v706h487v-206zM232 1047l159 -322l-312 193s11 42 66 85c54 41 87 44 87 44z" />
    <glyph glyph-name="Igrave" unicode="&#xcc;" horiz-adv-x="382" 
d="M312 705v-705h-200v705h200zM153 1047l159 -322l-312 193s11 42 66 85c54 41 87 44 87 44z" />
    <glyph glyph-name="Ograve" unicode="&#xd2;" 
d="M375 -30c-207 0 -375 169 -375 376s168 382 375 382c208 0 376 -175 376 -382s-168 -376 -376 -376zM375 528c-96 0 -175 -85 -175 -182s79 -176 175 -176c97 0 176 79 176 176s-79 182 -176 182zM356 1047l159 -322l-312 193s11 42 66 85c54 41 87 44 87 44z" />
    <glyph glyph-name="Ugrave" unicode="&#xd9;" horiz-adv-x="560" 
d="M245 -30c-135 0 -245 110 -245 245v490h200v-490c0 -25 20 -45 45 -45s45 20 45 45v490h200v-490c0 -135 -110 -245 -245 -245zM246 1047l159 -322l-312 193s11 42 66 85c54 41 87 44 87 44z" />
    <glyph glyph-name="AE" unicode="&#xc6;" horiz-adv-x="931" 
d="M861 499h-187v-48h187v-200h-187v-51h187v-200h-387v9l4 114h-180l-78 -123h-220l474 705h387v-206zM405 301h68l2 99z" />
    <glyph glyph-name="asciitilde" unicode="~" horiz-adv-x="670" 
d="M419 220c-85 0 -136 47 -173 81c-28 26 -42 37 -59 37c-21 0 -47 -9 -47 -32h-140c0 69 50 172 187 172c73 0 120 -43 154 -74c31 -29 49 -44 78 -44c28 0 41 23 41 48h140c0 -75 -48 -188 -181 -188v0z" />
    <glyph glyph-name="numbersign" unicode="#" horiz-adv-x="702" 
d="M632 534v-135h-111l-36 -113h68v-135h-112l-49 -151h-146l49 151h-70l-49 -151h-147l49 151h-78v135h122l37 113h-80v135h125l57 174l147 -2l-57 -172h70l57 174h144l-57 -174h67zM307 399l-37 -113h69l37 113h-69z" />
    <glyph glyph-name="ring" unicode="&#x2da;" horiz-adv-x="272" 
d="M0 606c0 55 45 100 100 100s100 -45 100 -100s-45 -100 -100 -100s-100 45 -100 100zM36 605c0 -35 29 -64 64 -64s64 29 64 64s-29 64 -64 64s-64 -29 -64 -64z" />
    <glyph glyph-name="Aring" unicode="&#xc5;" horiz-adv-x="832" 
d="M544 0l-51 111h-224l-52 -111h-217l373 754l389 -754h-218zM332 301h81l-40 93zM273 882c0 55 45 100 100 100s100 -45 100 -100s-45 -100 -100 -100s-100 45 -100 100zM309 881c0 -35 29 -64 64 -64s64 29 64 64s-29 64 -64 64s-64 -29 -64 -64z" />
    <glyph glyph-name="aring" unicode="&#xe5;" horiz-adv-x="605" 
d="M535 705v-705h-168v114h-145s-1 -87 1 -114h-178c-1 25 -2 71 0 114h-45v175h62c15 86 41 176 86 250c115 188 319 172 387 166zM242 289h-10h135v204c-25 -13 -57 -34 -88 -85c-28 -46 -37 -119 -37 -119zM278 829c0 55 45 100 100 100s100 -45 100 -100
s-45 -100 -100 -100s-100 45 -100 100zM314 828c0 -35 29 -64 64 -64s64 29 64 64s-29 64 -64 64s-64 -29 -64 -64z" />
    <glyph glyph-name="ae" unicode="&#xe6;" horiz-adv-x="824" 
d="M535 705h219v-206h-187v-48h187v-200h-187v-51h187v-200h-387v114h-145s-1 -87 1 -114h-178c-1 25 -2 71 0 114h-45v175h62c15 86 41 176 86 250c115 188 319 172 387 166zM242 289h125v204c-25 -13 -57 -34 -88 -85c-28 -46 -37 -119 -37 -119z" />
    <glyph glyph-name="ampersand.alt" horiz-adv-x="671" 
d="M601 326l-136 -136l108 -141l-97 -99l-90 114c-41 -44 -98 -71 -162 -71c-124 0 -224 101 -224 224c0 85 47 159 117 197c-19 16 -35 36 -45 59l-4 5l2 1c-8 19 -13 41 -13 63c0 92 75 167 167 167s167 -75 167 -167c0 -62 -34 -117 -85 -146l73 -94l123 123zM228 574
c-21 0 -37 -17 -37 -37c0 -21 16 -37 37 -37c20 0 37 16 37 37c0 20 -17 37 -37 37zM224 148c29 0 54 18 64 44l-72 94c-35 -4 -61 -33 -61 -69c0 -38 31 -69 69 -69z" />
    <glyph glyph-name="dollar" unicode="$" horiz-adv-x="351" 
d="M135 607c-46 -52 128 -230 124 -304c-4 -78 -32 -100 -78 -122v-71h-78v69c-31 13 -79 32 -103 73l57 79s59 -62 92 -38c38 28 -132 188 -132 306c0 78 86 106 86 106v83h78v-81s76 -34 100 -76l-58 -68s-61 75 -88 44z" />
    <glyph glyph-name="circumflex" unicode="&#x2c6;" horiz-adv-x="342" 
d="M62 567l-62 50c17 21 77 89 136 89c60 0 120 -68 136 -89l-62 -50c-24 30 -60 59 -74 59c-13 0 -49 -29 -74 -59v0z" />
    <glyph glyph-name="Acircumflex" unicode="&#xc2;" horiz-adv-x="832" 
d="M544 0l-51 111h-224l-52 -111h-217l373 754l389 -754h-218zM332 301h81l-40 93zM301 775l-62 50c17 21 77 89 136 89c60 0 120 -68 136 -89l-62 -50c-24 30 -60 59 -74 59c-13 0 -49 -29 -74 -59v0z" />
    <glyph glyph-name="Ecircumflex" unicode="&#xca;" horiz-adv-x="557" 
d="M487 499h-287v-48h287v-200h-287v-51h287v-200l-287 -1h-200v706h487v-206zM171 775l-62 50c17 21 77 89 136 89c60 0 120 -68 136 -89l-62 -50c-24 30 -60 59 -74 59c-13 0 -49 -29 -74 -59v0z" />
    <glyph glyph-name="Icircumflex" unicode="&#xce;" horiz-adv-x="307" 
d="M234 705v-705h-200v705h200zM62 775l-62 50c17 21 77 89 136 89c60 0 120 -68 136 -89l-62 -50c-24 30 -60 59 -74 59c-13 0 -49 -29 -74 -59v0z" />
    <glyph glyph-name="Ocircumflex" unicode="&#xd4;" 
d="M375 -30c-207 0 -375 169 -375 376s168 382 375 382c208 0 376 -175 376 -382s-168 -376 -376 -376zM375 528c-96 0 -175 -85 -175 -182s79 -176 175 -176c97 0 176 79 176 176s-79 182 -176 182zM301 775l-62 50c17 21 77 89 136 89c60 0 120 -68 136 -89l-62 -50
c-24 30 -60 59 -74 59c-13 0 -49 -29 -74 -59v0z" />
    <glyph glyph-name="Ucircumflex" unicode="&#xdb;" horiz-adv-x="560" 
d="M245 -30c-135 0 -245 110 -245 245v490h200v-490c0 -25 20 -45 45 -45s45 20 45 45v490h200v-490c0 -135 -110 -245 -245 -245zM170 775l-62 50c17 21 77 89 136 89c60 0 120 -68 136 -89l-62 -50c-24 30 -60 59 -74 59c-13 0 -49 -29 -74 -59v0z" />
    <glyph glyph-name="acircumflex" unicode="&#xe2;" horiz-adv-x="605" 
d="M535 705v-705h-168v114h-145s-1 -87 1 -114h-178c-1 25 -2 71 0 114h-45v175h62c15 86 41 176 86 250c115 188 319 172 387 166zM242 289h-10h135v204c-25 -13 -57 -34 -88 -85c-28 -46 -37 -119 -37 -119zM323 775l-62 50c17 21 77 89 136 89c60 0 120 -68 136 -89
l-62 -50c-24 30 -60 59 -74 59c-13 0 -49 -29 -74 -59v0z" />
    <glyph glyph-name="ecircumflex" unicode="&#xea;" horiz-adv-x="457" 
d="M387 499h-187v-48h187v-200h-187v-51h187v-200h-387v705h387v-206zM126 775l-62 50c17 21 77 89 136 89c60 0 120 -68 136 -89l-62 -50c-24 30 -60 59 -74 59c-13 0 -49 -29 -74 -59v0z" />
    <glyph glyph-name="icircumflex" unicode="&#xee;" horiz-adv-x="307" 
d="M230 705v-705h-200v705h200zM62 775l-62 50c17 21 77 89 136 89c60 0 120 -68 136 -89l-62 -50c-24 30 -60 59 -74 59c-13 0 -49 -29 -74 -59v0z" />
    <glyph glyph-name="ocircumflex" unicode="&#xf4;" 
d="M375 -30c-207 0 -375 169 -375 376s168 382 375 382c208 0 376 -175 376 -382s-168 -376 -376 -376zM375 528c-96 0 -175 -85 -175 -182s79 -176 175 -176c97 0 176 79 176 176s-79 182 -176 182zM450 753c-51 0 -83 29 -106 50c-19 17 -27 24 -40 24c-8 0 -32 0 -33 -25
v1h-80c0 42 30 104 113 104c45 0 72 -25 94 -45c21 -19 33 -29 52 -29c21 0 30 17 30 34h80c0 -45 -29 -114 -110 -114v0z" />
    <glyph glyph-name="ucircumflex" unicode="&#xfb;" horiz-adv-x="560" 
d="M245 -30c-135 0 -245 110 -245 245v490h200v-490c0 -25 20 -45 45 -45s45 20 45 45v490h200v-490c0 -135 -110 -245 -245 -245zM170 775l-62 50c17 21 77 89 136 89c60 0 120 -68 136 -89l-62 -50c-24 30 -60 59 -74 59c-13 0 -49 -29 -74 -59v0z" />
    <glyph glyph-name="cedilla" unicode="&#xb8;" horiz-adv-x="296" 
d="M284 120l-152 -238l47 158c-37 20 -105 19 -179 -2l71 205l26 -9l-26 -76c66 8 151 16 213 -38z" />
    <glyph glyph-name="Ccedilla" unicode="&#xc7;" horiz-adv-x="529" 
d="M435 -2c-243 -18 -435 123 -435 371c0 205 146 375 435 346v-200c-140 12 -214 -72 -214 -145c0 -76 63 -162 214 -162v-210v0zM459 -95l-152 -238l47 158c-37 20 -105 19 -179 -2l71 205l26 -9l-26 -76c66 8 151 16 213 -38z" />
    <glyph glyph-name="ccedilla" unicode="&#xe7;" horiz-adv-x="764" 
d="M371 -30c-106 0 -204 46 -275 128c-61 71 -96 164 -96 255c0 90 33 182 91 251c67 80 162 124 267 124c212 0 336 -165 341 -172l-161 -118l1 -1c-3 4 -71 91 -181 91c-109 0 -158 -102 -158 -175c0 -77 60 -183 171 -183c109 0 161 78 163 81c0 -1 -1 -1 -1 -1l171 -104
c-40 -66 -155 -176 -333 -176v0zM524 -129l-152 -238l47 158c-37 20 -105 19 -179 -2l71 205l26 -9l-26 -76c66 8 151 16 213 -38z" />
    <glyph glyph-name="percent" unicode="%" horiz-adv-x="961" 
d="M706 705l-366 -705h-156l366 705h156zM193 327c-107 0 -193 86 -193 193c0 106 86 193 193 193c106 0 193 -87 193 -193c0 -107 -87 -193 -193 -193v0zM193 573c-29 0 -53 -24 -53 -53s24 -53 53 -53s53 24 53 53s-24 53 -53 53v0zM698 0c-106 0 -192 87 -192 193
s86 193 192 193c107 0 193 -87 193 -193s-86 -193 -193 -193v0zM698 246c-29 0 -52 -24 -52 -53s23 -53 52 -53c30 0 53 24 53 53s-23 53 -53 53v0z" />
    <glyph glyph-name="asterisk" unicode="*" horiz-adv-x="432" 
d="M347 585v-100h-93l78 -38l-71 -70l-37 77v-93h-100v93l-38 -77l-71 70l78 38h-93v100h93l-78 37l71 71l38 -78v94h100v-94l37 78l71 -71l-78 -37h93z" />
    <glyph glyph-name="braceleft" unicode="{" horiz-adv-x="368" 
d="M298 -1v-165c-134 18 -217 143 -217 282c0 62 -30 145 -81 152h1l-1 160s1 0 0 0c56 5 85 98 85 163c0 135 69 268 213 293v-166c-43 -21 -53 -80 -53 -127c0 -98 -63 -202 -102 -243c37 -40 98 -141 98 -232c0 -47 12 -92 57 -117z" />
    <glyph glyph-name="braceright" unicode="}" horiz-adv-x="368" 
d="M0 -166v165c45 25 57 70 57 117c0 91 61 192 98 232c-39 41 -102 145 -102 243c0 47 -10 106 -53 127v166c144 -25 213 -158 213 -293c0 -65 29 -158 85 -163c-1 0 0 0 0 0l-1 -160h1c-51 -7 -81 -90 -81 -152c0 -139 -83 -264 -217 -282z" />
    <glyph glyph-name="bar" unicode="|" horiz-adv-x="251" 
d="M181 847v-992h-181v992h181z" />
    <glyph glyph-name="exclam" unicode="!" horiz-adv-x="290" 
d="M220 874l-113 -659l-107 662c33 13 69 20 107 20c40 0 78 -8 113 -23zM4 85c0 55 45 100 100 100s100 -45 100 -100s-45 -100 -100 -100s-100 45 -100 100z" />
    <glyph glyph-name="quotedbl" unicode="&#x22;" horiz-adv-x="260" 
d="M450 709l-190 304s20 26 84 50s106 12 106 12v-366zM190 709l-190 304s20 26 84 50s106 12 106 12v-366z" />
    <glyph glyph-name="ampersand" unicode="&#x26;" horiz-adv-x="1238" 
d="M1168 0h-1168v100h1168v-100v0zM1168 605h-1168v100h1168v-100v0zM293 131l-23 56h-122l-23 -56h-101l187 438l183 -438h-101zM184 271h52l-26 61zM779 569v-446l-256 214v-206h-98v423l257 -214v229h97zM918 131h-98v438h98c122 0 222 -100 222 -222
c0 -123 -100 -216 -222 -216v0zM919 471v-243c68 1 123 51 123 119s-55 124 -123 124v0z" />
    <glyph glyph-name="quotesingle" unicode="'" horiz-adv-x="0" 
d="M0 709v366s42 12 106 -12s84 -50 84 -50z" />
    <glyph glyph-name="Q" unicode="Q" 
d="M375 -30c-207 0 -375 169 -375 376s168 382 375 382c208 0 376 -175 376 -382c0 -135 -72 -254 -179 -320l46 -74s-29 -32 -96 -46c-67 -13 -98 -2 -98 -2v70c-16 -2 -33 -4 -49 -4zM424 177v86l42 -68c51 31 85 87 85 151c0 97 -79 182 -176 182
c-96 0 -175 -85 -175 -182s79 -176 175 -176c17 0 33 2 49 7z" />
    <glyph glyph-name="q" unicode="q" 
d="M708 -4v-200c-146 3 -273 75 -351 175c-197 15 -357 175 -357 374c0 211 182 383 376 383c205 0 375 -183 375 -383c0 -137 -75 -260 -189 -326c45 -16 94 -22 146 -23zM376 528c-97 0 -176 -86 -176 -183s79 -175 176 -175s175 78 175 175s-78 183 -175 183z" />
    <glyph glyph-name="underscore" unicode="_" horiz-adv-x="770" 
d="M700 -10h-700v100h700v-100z" />
    </font>
</defs>
</svg>
